- 
http://www.Speed.Cd
 
http://www.Speed.Cd       the fast  and The Hottest Private Tracker on the net

Please Seed back to make the speed Faster!!
 ............ NFO .............
-[IMG]http://i.imgur.com/yTPjiSU.jpg[/IMG]

Source: ONLiNE
 
http://www.imdb.com/title/tt1758610/

A woman's idyllic life is shattered when her husband is killed in a senseless act of violence. As she prepares to take matters into her own hands, two unexpected encounters begin to change everything.

General
Complete name                            : Unconditional 2012 WEBRip x264 AAC-OFFLiNE.mp4
Format                                   : MPEG-4
Format profile                           : Base Media
Codec ID                                 : isom
File size                                : 1.42 GiB
Duration                                 : 1h 37mn
Overall bit rate mode                    : Variable
Overall bit rate                         : 2 068 Kbps
Encoded date                             : UTC 2013-03-06 19:24:00
Tagged date                              : UTC 2013-03-06 19:24:00

Video
ID                                       : 1
Format                                   : AVC
Format/Info                              : Advanced Video Codec
Format profile                           : High@L4.1
Format settings, CABAC                   : Yes
Format settings, ReFrames                : 3 frames
Codec ID                                 : avc1
Codec ID/Info                            : Advanced Video Coding
Duration                                 : 1h 37mn
Bit rate mode                            : Variable
Bit rate                                 : 1 724 Kbps
Maximum bit rate                         : 40.0 Mbps
Width                                    : 720 pixels
Height                                   : 400 pixels
Display aspect ratio                     : 16:9
Frame rate mode                          : Constant
Frame rate                               : 23.976 fps
Color space                              : YUV
Chroma subsampling                       : 4:2:0
Bit depth                                : 8 bits
Scan type                                : Progressive
Bits/(Pixel*Frame)                       : 0.250
Stream size                              : 1.18 GiB (83%)
Writing library                          : x264 core 130 r2273 b3065e6

Audio
ID                                       : 2
Format                                   : AAC
Format/Info                              : Advanced Audio Codec
Format profile                           : LC
Codec ID                                 : 40
Duration                                 : 1h 37mn
Bit rate mode                            : Variable
Bit rate                                 : 340 Kbps
Maximum bit rate                         : 411 Kbps
Channel(s)                               : 6 channels
Channel positions                        : Front: L C R, Side: L R, LFE
Sampling rate                            : 48.0 KHz
Compression mode                         : Lossy
Stream size                              : 239 MiB (16%)
Language                                 : English
Encoded date                             : UTC 2013-03-06 15:26:09
Tagged date                              : UTC 2013-03-06 19:24:39

[IMG]http://i.imgur.com/1r5QlEX.png[/IMG]
[IMG]http://i.imgur.com/0UilZ2F.png[/IMG]
[IMG]http://i.imgur.com/mjfFutR.png[/IMG]
[IMG]http://i.imgur.com/8iBdLEk.png[/IMG]

Greets: To Our Friends